<svg width="60" height="60" viewBox="0 0 60 60" fill="none" xmlns="http://www.w3.org/2000/svg">
<path d="M0 20C0 8.9543 8.95431 0 20 0H40C51.0457 0 60 8.95431 60 20V40C60 51.0457 51.0457 60 40 60H20C8.9543 60 0 51.0457 0 40V20Z" fill="#FB6D3A"/>
<path d="M42.5 25.3333C42.4959 24.8862 42.3634 24.4497 42.1183 24.0757C41.8733 23.7017 41.5259 23.4061 41.1176 23.2239C40.7092 23.0417 40.2572 22.9806 39.8151 23.048C39.3731 23.1154 38.9597 23.3084 38.6243 23.604C38.2888 23.8995 38.0453 24.2853 37.9227 24.7153C37.8002 25.1453 37.8038 25.6015 37.9331 26.0295C38.0625 26.4575 38.312 26.8394 38.6522 27.1296C38.9923 27.4199 39.4086 27.6063 39.8517 27.6667C40.0968 28.3433 40.1999 29.0632 40.1545 29.7814C40.1091 30.4997 39.9161 31.2009 39.5877 31.8412C39.2593 32.4816 38.8025 33.0475 38.2457 33.5035C37.689 33.9595 37.0442 34.2959 36.3517 34.4917C36.044 33.7835 35.5107 33.1969 34.835 32.8233C35.802 31.6236 36.4098 30.1749 36.5883 28.6444C36.7669 27.1139 36.5087 25.5641 35.8438 24.1741C35.1788 22.7841 34.1342 21.6105 32.8306 20.789C31.527 19.9675 30.0175 19.5316 28.4767 19.5316C26.9358 19.5316 25.4264 19.9675 24.1227 20.789C22.8191 21.6105 21.7745 22.7841 21.1095 24.1741C20.4446 25.5641 20.1865 27.1139 20.365 28.6444C20.5435 30.1749 21.1514 31.6236 22.1183 32.8233C21.5828 33.1243 21.136 33.5609 20.8226 34.0892C20.5093 34.6176 20.3406 35.2191 20.3333 35.8333V37C20.3333 37.9282 20.7021 38.8185 21.3585 39.4749C22.0148 40.1312 22.9051 40.5 23.8333 40.5H33.1667C34.0949 40.5 34.9852 40.1312 35.6415 39.4749C36.2979 38.8185 36.6667 37.9282 36.6667 37V36.7783C37.7138 36.5338 38.6967 36.0683 39.5494 35.4131C40.402 34.7579 41.1049 33.928 41.6108 32.9791C42.1167 32.0302 42.4141 30.9842 42.4829 29.911C42.5518 28.8379 42.3905 27.7624 42.01 26.7567C42.3261 26.3494 42.4984 25.8489 42.5 25.3333ZM34.3333 37C34.3333 37.3094 34.2104 37.6062 33.9916 37.8249C33.7728 38.0437 33.4761 38.1667 33.1667 38.1667H23.8333C23.5239 38.1667 23.2272 38.0437 23.0084 37.8249C22.7896 37.6062 22.6667 37.3094 22.6667 37V35.8333C22.6667 35.5239 22.7896 35.2272 23.0084 35.0084C23.2272 34.7896 23.5239 34.6667 23.8333 34.6667H24.3117C25.5752 35.4304 27.0236 35.8341 28.5 35.8341C29.9764 35.8341 31.4248 35.4304 32.6883 34.6667H33.1667C33.4761 34.6667 33.7728 34.7896 33.9916 35.0084C34.2104 35.2272 34.3333 35.5239 34.3333 35.8333V37ZM28.5 33.5C27.3463 33.5 26.2185 33.1579 25.2592 32.5169C24.2999 31.8759 23.5522 30.9649 23.1107 29.899C22.6692 28.8331 22.5537 27.6602 22.7788 26.5286C23.0038 25.3971 23.5594 24.3577 24.3752 23.5419C25.191 22.7261 26.2304 22.1705 27.362 21.9454C28.4935 21.7203 29.6664 21.8358 30.7323 22.2774C31.7982 22.7189 32.7093 23.4665 33.3502 24.4258C33.9912 25.3851 34.3333 26.5129 34.3333 27.6667C34.3333 28.4327 34.1825 29.1912 33.8893 29.899C33.5961 30.6067 33.1665 31.2498 32.6248 31.7914C32.0831 32.3331 31.4401 32.7628 30.7323 33.056C30.0246 33.3491 29.266 33.5 28.5 33.5ZM28.5 26.5C28.2693 26.5 28.0437 26.5684 27.8518 26.6966C27.66 26.8248 27.5104 27.007 27.4221 27.2202C27.3338 27.4334 27.3107 27.668 27.3558 27.8943C27.4008 28.1206 27.5119 28.3285 27.675 28.4916C27.8382 28.6548 28.0461 28.7659 28.2724 28.8109C28.4987 28.8559 28.7333 28.8328 28.9465 28.7445C29.1596 28.6562 29.3419 28.5067 29.47 28.3148C29.5982 28.123 29.6667 27.8974 29.6667 27.6667C29.6667 27.3572 29.5438 27.0605 29.325 26.8417C29.1062 26.6229 28.8094 26.5 28.5 26.5Z" fill="white"/>
</svg>
